<?xml version="1.0" encoding="UTF-8" standalone="no"?>
<svg
   xmlns:dc="http://purl.org/dc/elements/1.1/"
   xmlns:cc="http://creativecommons.org/ns#"
   xmlns:rdf="http://www.w3.org/1999/02/22-rdf-syntax-ns#"
   xmlns:svg="http://www.w3.org/2000/svg"
   xmlns="http://www.w3.org/2000/svg"
   version="1.1"
   id="svg2"
   viewBox="0 0 149.00003 213.7644"
   height="60.329063mm"
   width="42.051121mm">
  <defs
     id="defs4" />
  <metadata
     id="metadata7">
    <rdf:RDF>
      <cc:Work
         rdf:about="">
        <dc:format>image/svg+xml</dc:format>
        <dc:type
           rdf:resource="http://purl.org/dc/dcmitype/StillImage" />
        <dc:title></dc:title>
      </cc:Work>
    </rdf:RDF>
  </metadata>
  <g
     transform="translate(-266.85715,-336.79075)"
     id="layer1">
    <path
       id="path3407"
       d="m 298.85715,549.29162 c -9.17517,-2.90891 -16.55214,-8.14081 -22.54082,-15.98641 -8.10946,-10.62396 -9.45918,-16.84453 -9.45918,-43.59523 l 0,-20.91923 12.5,0 12.5,0 0.0239,18.75 c 0.026,20.4322 0.5933,24.53828 4.13241,29.91002 7.44152,11.2949 25.40171,9.37547 31.01515,-3.31463 1.80084,-4.0711 1.91294,-6.52361 1.63116,-35.68388 l -0.30258,-31.31234 -2.75854,-4.16605 c -1.51719,-2.29132 -4.63325,-5.40667 -6.92456,-6.92299 -3.80573,-2.51851 -5.13002,-2.78755 -15.3123,-3.11078 l -11.14628,-0.35383 -3.10224,3.10224 c -5.33172,5.33173 -13.90591,3.5779 -16.8401,-3.4446 -4.22429,-10.11016 8.85899,-18.18018 17.02967,-10.50422 1.76249,1.65578 3.97225,2.08783 12.94195,2.53045 5.94911,0.29356 12.00812,0.82773 13.46448,1.18704 4.75025,1.17199 9.98326,4.40891 13.6004,8.41265 l 3.54752,3.92668 0,-12.56481 c 0,-11.3267 -0.24635,-13.08555 -2.5001,-17.84958 -2.88975,-6.10844 -7.5698,-11.25778 -12.76202,-14.04176 -3.6067,-1.93385 -3.65582,-1.93385 -5.7927,0 -1.58533,1.4347 -3.60497,1.95039 -7.63852,1.95039 -4.5664,0 -5.80517,-0.39741 -7.4077,-2.37645 -3.71871,-4.59242 -3.67756,-10.34495 0.10104,-14.12355 4.32323,-4.32323 12.95014,-3.7747 15.85889,1.00836 0.97571,1.60443 4.41646,4.29221 7.7023,6.01674 6.77849,3.5576 9.52011,5.855 13.57434,11.37494 l 2.86447,3.90004 0,-22.28537 0,-22.28537 -2.45956,-2.27944 c -6.98154,-6.47028 -2.5772,-17.4499 6.99983,-17.4499 9.51275,0 14.08941,10.52416 7.45973,17.15385 l -3,3 0.0556,17.17307 0.0555,17.17308 2.19445,-3 c 6.00455,-8.20876 15.18667,-14.35987 23.69657,-15.87436 2.01166,-0.35801 4.70883,-1.90177 6.33751,-3.62736 3.50054,-3.70883 6.51029,-4.53294 11.06501,-3.02975 3.60952,1.19125 7.59536,6.19311 7.59536,9.53147 0,3.33836 -3.98584,8.34022 -7.59535,9.53147 -4.32071,1.42596 -7.47978,0.71136 -10.43667,-2.36084 -1.90427,-1.97853 -2.85738,-2.23944 -6.04877,-1.65586 -4.92813,0.90117 -13.0445,6.14965 -16.48454,10.65977 -4.10722,5.38484 -6.43467,14.11168 -6.43467,24.12696 l 0,8.62332 4.75,-4.60487 c 7.93939,-7.69681 9.64937,-8.2444 27,-8.64625 12.15377,-0.28149 15.25,-0.63431 15.25,-1.73777 0,-1.74513 5.09737,-4.43593 8.40329,-4.43593 5.44422,0 10.59671,4.79293 10.59671,9.85724 0,9.16366 -12.55253,14.34096 -17.99496,7.42204 -1.86958,-2.37679 -2.30209,-2.4466 -14.91789,-2.40799 -14.28316,0.0437 -17.93616,1.11037 -23.24413,6.78713 -5.71168,6.1085 -5.84302,7.1955 -5.84302,48.35837 0,35.05295 -0.14522,38.24269 -2.0169,44.3025 -4.44261,14.3835 -15.82275,25.93331 -29.4831,29.92266 -6.57307,1.91959 -17.8694,2.04405 -23.5,0.25892 z"
       style="fill:#252525" />
  </g>
</svg>
