<?xml version="1.0" encoding="UTF-8" standalone="no"?>
<svg
   xmlns:dc="http://purl.org/dc/elements/1.1/"
   xmlns:cc="http://creativecommons.org/ns#"
   xmlns:rdf="http://www.w3.org/1999/02/22-rdf-syntax-ns#"
   xmlns:svg="http://www.w3.org/2000/svg"
   xmlns="http://www.w3.org/2000/svg"
   version="1.1"
   id="svg2"
   viewBox="0 0 127.93654 127.96093"
   height="36.113419mm"
   width="36.106537mm">
  <defs
     id="defs4" />
  <metadata
     id="metadata7">
    <rdf:RDF>
      <cc:Work
         rdf:about="">
        <dc:format>image/svg+xml</dc:format>
        <dc:type
           rdf:resource="http://purl.org/dc/dcmitype/StillImage" />
        <dc:title></dc:title>
      </cc:Work>
    </rdf:RDF>
  </metadata>
  <g
     transform="translate(-277.18678,-377.28897)"
     id="layer1">
    <path
       id="path3420"
       d="m 291.64286,502.88614 c -6.0094,-2.84095 -9.68359,-6.5736 -12.41909,-12.61671 -1.95138,-4.31089 -2.03699,-6.37008 -2.03699,-49 0,-42.62993 0.0856,-44.68911 2.03699,-49 2.7355,-6.04311 6.40969,-9.77576 12.41909,-12.61671 l 5,-2.36375 44.5,0 44.5,0 5,2.36375 c 6.0094,2.84095 9.68359,6.5736 12.41909,12.61671 1.95074,4.30946 2.0375,6.38418 2.04918,49 l 0.0122,44.5 -2.36375,5 c -2.84095,6.0094 -6.5736,9.68359 -12.61671,12.41909 -4.30946,1.95074 -6.38419,2.0375 -49,2.04918 l -44.5,0.0122 -5,-2.36375 z m 96.25914,-9.61131 c 1.79253,-1.09292 4.15334,-3.45373 5.24626,-5.24626 1.90243,-3.12023 1.98712,-5.1132 1.98712,-46.75914 0,-41.64594 -0.0847,-43.63891 -1.98712,-46.75914 -1.09292,-1.79253 -3.45373,-4.15335 -5.24626,-5.24626 -3.12023,-1.90243 -5.1132,-1.98712 -46.75914,-1.98712 -41.64594,0 -43.63891,0.0847 -46.75914,1.98712 -1.79253,1.09291 -4.15335,3.45373 -5.24626,5.24626 -1.90243,3.12023 -1.98712,5.1132 -1.98712,46.75914 0,41.64594 0.0847,43.63891 1.98712,46.75914 1.09291,1.79253 3.45373,4.15334 5.24626,5.24626 3.12023,1.90243 5.1132,1.98712 46.75914,1.98712 41.64594,0 43.63891,-0.0847 46.75914,-1.98712 z m -84.55914,-19.2054 c -1.48008,-1.48008 -1.68624,-48.48091 -0.22283,-50.8 0.72484,-1.14865 3.53202,-1.57928 11.98469,-1.83848 l 11.03814,-0.33847 0,-4.97727 c 0,-8.74853 0.16492,-8.84578 15,-8.84578 14.83508,0 15,0.0973 15,8.84578 l 0,4.97727 11.03814,0.33847 c 8.45267,0.2592 11.25985,0.68983 11.98469,1.83848 1.46341,2.31909 1.25725,49.31992 -0.22283,50.8 -0.66,0.66 -3.81,1.2 -7,1.2 l -5.8,0 -0.0153,-8.25 c -0.0164,-8.85001 -0.84444,-11.40153 -3.38376,-10.4271 -1.30439,0.50053 -1.60094,2.28726 -1.60094,9.64571 l 0,9.03139 -4.96247,0 -4.96248,0 -0.28752,-9.25 c -0.26383,-8.48749 -0.4524,-9.25 -2.28753,-9.25 -1.83513,0 -2.0237,0.76251 -2.28753,9.25 l -0.28752,9.25 -4.92495,0 -4.92495,0 -0.28752,-9.25 c -0.26383,-8.48749 -0.4524,-9.25 -2.28753,-9.25 -1.83513,0 -2.0237,0.76251 -2.28753,9.25 l -0.28752,9.25 -4.96248,0 -4.96247,0 0,-9.03139 c 0,-7.35845 -0.29655,-9.14518 -1.60093,-9.64571 -2.53932,-0.97443 -3.36733,1.57709 -3.38376,10.4271 l -0.0153,8.25 -5.8,0 c -3.19,0 -6.34,-0.54 -7,-1.2 z"
       style="fill:#343434" />
  </g>
</svg>
