<?xml version="1.0" encoding="UTF-8" standalone="no"?>
<svg
   xmlns:dc="http://purl.org/dc/elements/1.1/"
   xmlns:cc="http://creativecommons.org/ns#"
   xmlns:rdf="http://www.w3.org/1999/02/22-rdf-syntax-ns#"
   xmlns:svg="http://www.w3.org/2000/svg"
   xmlns="http://www.w3.org/2000/svg"
   version="1.1"
   id="svg3422"
   viewBox="0 0 439.39344 417.99999"
   height="117.96889mm"
   width="124.00659mm">
  <defs
     id="defs3424" />
  <metadata
     id="metadata3427">
    <rdf:RDF>
      <cc:Work
         rdf:about="">
        <dc:format>image/svg+xml</dc:format>
        <dc:type
           rdf:resource="http://purl.org/dc/dcmitype/StillImage" />
        <dc:title></dc:title>
      </cc:Work>
    </rdf:RDF>
  </metadata>
  <g
     transform="translate(-145.94258,-289.59208)"
     id="layer1">
    <g
       transform="translate(0,-31.428572)"
       id="g3456">
      <path
         id="path3460"
         d="m 137.71425,519.46509 0,-228 228,0 228,0 0,228 0,228 -228,0 -228,0 0,-228 z m 445.37018,215.47212 c 3.0021,-5.60952 3.0021,-199.44583 0,-205.05535 -1.86101,-3.47732 -4.52456,-4.08344 -17.94445,-4.08344 l -15.75906,0 0,-98.30545 c 0,-63.72726 -0.7687,-99.74177 -2.18538,-102.38889 -2.13666,-3.99236 -6.57668,-4.08343 -199.07779,-4.08343 -150.32371,0 -197.49157,0.59918 -199.42572,2.53333 -3.66593,3.66593 -3.66593,307.93408 0,311.6 1.86245,1.86246 20.0321,2.53333 68.61111,2.53333 l 66.07778,0 0,8.44445 c 0,8.01555 -0.32872,8.44444 -6.47212,8.44444 -13.15831,0 -14.63899,2.34884 -14.63899,23.22222 0,16.47725 0.51427,19.12669 4.08343,21.03685 2.60381,1.3935 32.39368,2.18538 82.21363,2.18538 l 78.13018,0 3.28639,-4.69197 c 2.18962,-3.12613 3.28637,-9.46686 3.28637,-19 0,-17.06652 -3.95684,-22.75248 -15.83334,-22.75248 -7.21297,0 -7.38889,-0.20098 -7.38889,-8.44444 l 0,-8.44445 14.77778,0 14.77778,0 0,46.58323 c 0,28.07383 0.86834,48.20575 2.18538,50.66667 2.09167,3.9083 5.12166,4.08344 70.64795,4.08344 65.52629,0 68.55629,-0.17523 70.64796,-4.08344 z m -124.48129,-24.41656 0,-11.61112 54.88889,0 54.88889,0 0,11.61112 0,11.61111 -54.88889,0 -54.88889,0 0,-11.61111 z m 60.28311,2.79975 c 1.92561,-6.06706 -4.2089,-10.97157 -9.90807,-7.92146 -4.51295,2.41526 -5.05915,6.31537 -1.39726,9.97726 3.99962,3.99963 9.71318,2.96067 11.30533,-2.0558 z m -60.28311,-97.79975 0,-72.83334 54.88889,0 54.88889,0 0,72.83334 0,72.83333 -54.88889,0 -54.88889,0 0,-72.83333 z m 51.72222,8.39487 c 17.92937,-22.78032 22.48806,-31.6171 16.31055,-31.6171 -3.11043,0 -42.60934,49.35174 -42.66338,53.30556 -0.10619,7.77908 9.16706,0.14714 26.35283,-21.68846 z m 18.71538,4.89109 c 10.35794,-13.00413 13.23935,-18.00035 11.55295,-20.03232 -1.2357,-1.48894 -3.05837,-2.20554 -4.05036,-1.59245 -4.37008,2.70085 -27.27352,32.61114 -27.27352,35.6173 0,7.22192 6.58605,2.56075 19.77093,-13.99253 z m -249.88205,50.04737 0,-5.27778 67.55556,0 67.55556,0 0,5.27778 0,5.27778 -67.55556,0 -67.55556,0 0,-5.27778 z m 14.77778,-32.72222 0,-8.44445 53.83334,0 53.83333,0 0,8.44445 0,8.44444 -53.83333,0 -53.83334,0 0,-8.44444 z m -130.88889,-166.77778 0,-141.44445 183.66667,0 183.66667,0 0,93.94445 0,93.94444 -6.3094,0 -6.30937,0 -0.55174,-84.97222 -0.55172,-84.97222 -167.60161,-0.54056 c -122.06742,-0.3937 -168.38152,0.10669 -170.47223,1.84183 -2.34214,1.9438 -2.8706,19.84932 -2.8706,97.26268 0,61.36621 0.77193,96.32266 2.18539,98.96372 2.12424,3.96919 5.81609,4.08344 131.94444,4.08344 l 129.75906,0 0,31.66667 0,31.66666 -138.27778,0 -138.27778,0 0,-141.44444 z M 357.26981,597.5762 c 5.06138,-5.06139 5.41842,-12.13051 0.93585,-18.53026 -4.25655,-6.07706 -15.65094,-6.37089 -20.9281,-0.5397 -11.87873,13.12585 7.47524,31.58697 19.99225,19.06996 z m -171,-142.5 0,-91.83333 161.5,0 161.5,0 0,81.27778 0,81.27777 -32.64796,0 c -36.18913,0 -37.01871,0.32807 -37.01871,14.639 l 0,6.47211 -126.66667,0 -126.66666,0 0,-91.83333 z m 150.73869,-0.46032 c 21.63604,-26.98629 25.7814,-34.37301 19.28984,-34.37301 -2.37988,0 -27.67531,29.64208 -48.11233,56.37974 -2.42123,3.16768 -0.0314,7.4097 3.68599,6.5427 1.52024,-0.35456 12.83167,-13.20181 25.1365,-28.54943 z m 19.87073,7.90539 c 14.86794,-18.56863 18.14242,-25.38951 12.18867,-25.38951 -3.72415,0 -32.90921,36.30013 -32.90921,40.93219 0,7.26723 6.15097,2.65333 20.72054,-15.54268 z"
         style="fill:#fdfdfd" />
      <path
         id="path3458"
         d="m 441.78852,734.93721 c -1.31704,-2.46092 -2.18538,-22.59284 -2.18538,-50.66667 l 0,-46.58323 -14.77778,0 -14.77778,0 0,8.44445 c 0,8.24338 0.17586,8.44444 7.38889,8.44444 11.8765,0 15.83334,5.68596 15.83334,22.75248 0,9.53314 -1.09675,15.87387 -3.28637,19 l -3.28639,4.69197 -78.13018,0 c -49.81995,0 -79.60982,-0.79188 -82.21363,-2.18538 -3.56916,-1.91016 -4.08343,-4.5596 -4.08343,-21.03685 0,-20.87338 1.48068,-23.22222 14.63899,-23.22222 6.1434,0 6.47212,-0.42889 6.47212,-8.44444 l 0,-8.44445 -66.07778,0 c -48.57901,0 -66.74866,-0.67087 -68.61111,-2.53333 -3.66593,-3.66592 -3.66593,-307.93407 0,-311.6 1.93415,-1.93415 49.10201,-2.53333 199.42572,-2.53333 192.50111,0 196.94113,0.0911 199.07779,4.08343 1.41668,2.64712 2.18538,38.66163 2.18538,102.38889 l 0,98.30545 15.75906,0 c 13.41989,0 16.08344,0.60612 17.94445,4.08344 3.0021,5.60952 3.0021,199.44583 0,205.05535 -2.09167,3.9083 -5.12167,4.08344 -70.64796,4.08344 -65.52629,0 -68.55628,-0.17523 -70.64795,-4.08344 z m 126.5924,-24.41656 0,-11.61112 -54.88889,0 -54.88889,0 0,11.61112 0,11.61111 54.88889,0 54.88889,0 0,-11.61111 z m -60.8,4.85555 c -3.66189,-3.66189 -3.11569,-7.562 1.39726,-9.97726 5.69917,-3.05011 11.83368,1.8544 9.90807,7.92146 -1.59215,5.01647 -7.30571,6.05543 -11.30533,2.0558 z m 60.8,-99.85555 0,-72.83334 -54.88889,0 -54.88889,0 0,72.83334 0,72.83333 54.88889,0 54.88889,0 0,-72.83333 z m -84.40839,30.08333 c 0.054,-3.95382 39.55295,-53.30556 42.66338,-53.30556 6.17751,0 1.61882,8.83678 -16.31055,31.6171 -17.18577,21.83554 -26.45912,29.46754 -26.35283,21.68846 z m 25.29728,-2.80484 c 0,-3.00616 22.90344,-32.91645 27.27352,-35.6173 0.99199,-0.61309 2.81466,0.10345 4.05036,1.59245 1.6864,2.03197 -1.19501,7.02819 -11.55295,20.03232 -13.18488,16.55328 -19.77093,21.21445 -19.77093,13.99253 z m -95,36.05484 0,-5.27778 -67.55556,0 -67.55556,0 0,5.27778 0,5.27778 67.55556,0 67.55556,0 0,-5.27778 z m -12.66667,-32.72222 0,-8.44445 -53.83333,0 -53.83334,0 0,8.44445 0,8.44444 53.83334,0 53.83333,0 0,-8.44444 z m 38,-57 0,-31.66667 -129.75906,0 c -126.12835,0 -129.8202,-0.11421 -131.94444,-4.08344 -1.41346,-2.64106 -2.18539,-37.59751 -2.18539,-98.96372 0,-77.41336 0.52846,-95.31888 2.8706,-97.26268 2.09071,-1.73514 48.40481,-2.23553 170.47223,-1.84183 l 167.60161,0.54056 0.55172,84.97222 0.55174,84.97222 6.30937,0 6.3094,0 0,-93.94444 0,-93.94445 -183.66667,0 -183.66667,0 0,141.44445 0,141.44444 138.27778,0 138.27778,0 0,-31.66666 z m -101.36335,8.84464 c -9.86864,-7.99112 -3.4252,-23.62242 9.7375,-23.62242 12.13217,0 17.95738,14.55736 9.29252,23.22222 -5.25021,5.25021 -12.84331,5.40989 -19.03002,0.4002 z m 101.36335,-57.53898 c 0,-14.31093 0.82958,-14.639 37.01871,-14.639 l 32.64796,0 0,-81.27777 0,-81.27778 -161.5,0 -161.5,0 0,91.83333 0,91.83333 126.66666,0 126.66667,0 0,-6.47211 z M 307.67378,481.4895 c -0.78877,-1.27626 -0.55827,-3.46636 0.51223,-4.86689 20.43702,-26.73766 45.73245,-56.37974 48.11233,-56.37974 6.49156,0 2.3462,7.38672 -19.28984,34.37301 -21.96249,27.39347 -26.46448,31.51776 -29.33472,26.87362 z m 28.48491,-3.42555 c 0,-4.63206 29.18506,-40.93219 32.90921,-40.93219 5.95375,0 2.67927,6.82088 -12.18867,25.38951 -14.56957,18.19601 -20.72054,22.80991 -20.72054,15.54268 z"
         style="fill:#888888" />
    </g>
    <path
       id="path3454"
       d=""
       style="fill:#000000" />
  </g>
</svg>
